<svg xmlns="http://www.w3.org/2000/svg"  viewBox="0 0 100 100" width="100px" height="100px"><circle cx="12.875" cy="29.042" r="2" fill="#78a0cf"/><circle cx="76.875" cy="13.042" r="1" fill="#f1bc19"/><circle cx="49.875" cy="50.042" r="37" fill="#cee1f4"/><circle cx="82.875" cy="15.042" r="4" fill="#f1bc19"/><circle cx="86.875" cy="24.042" r="2" fill="#78a0cf"/><circle cx="80.875" cy="76.042" r="2" fill="#fbcd59"/><circle cx="14.875" cy="63.042" r="4" fill="#fbcd59"/><circle cx="24.875" cy="87.042" r="2" fill="#78a0cf"/><circle cx="28.375" cy="26.542" r="2.5" fill="#fff"/><circle cx="20.875" cy="62.042" r="1" fill="#f1bc19"/><circle cx="81.875" cy="40.042" r="1" fill="#fff"/><g><polygon fill="#b77748" points="60.5,77.5 64.684,45.678 34.518,45.678 38.5,77.5"/><polygon fill="#edb88c" points="35.015,49.802 64.187,49.802 64.684,45.678 34.518,45.678"/><path fill="#edece6" d="M65.429,40.26c-0.406-8.187-7.153-14.706-15.441-14.706s-15.094,6.509-15.5,14.696h-0.391 c-1.506,0-2.722,1.228-2.709,2.733l0,0.01c0.013,1.487,1.222,2.685,2.709,2.685h31.758c1.496,0,2.709-1.213,2.709-2.709v0 c0-1.496-1.213-2.709-2.709-2.709L65.429,40.26z"/><path fill="#b6b6b7" d="M68.564,42.833L68.564,42.833c0-1.571-1.302-2.844-2.909-2.844H34.32 c-1.606,0-2.909,1.273-2.909,2.844v0c0,1.571,1.302,2.844,2.909,2.844h31.335C67.262,45.678,68.564,44.404,68.564,42.833z"/><path fill="#472b29" d="M37.488,41h-4.261c-0.276,0-0.5-0.224-0.5-0.5s0.224-0.5,0.5-0.5h4.261c0.276,0,0.5,0.224,0.5,0.5 S37.764,41,37.488,41z"/><path fill="#472b29" d="M55.487,41h-15c-0.276,0-0.5-0.224-0.5-0.5s0.224-0.5,0.5-0.5h15c0.276,0,0.5,0.224,0.5,0.5 S55.764,41,55.487,41z"/><path fill="#472b29" d="M61.487,41h-2c-0.276,0-0.5-0.224-0.5-0.5s0.224-0.5,0.5-0.5h2c0.276,0,0.5,0.224,0.5,0.5 S61.764,41,61.487,41z"/><path fill="#472b29" d="M66.971,41h-3.483c-0.276,0-0.5-0.224-0.5-0.5s0.224-0.5,0.5-0.5h3.483c0.276,0,0.5,0.224,0.5,0.5 S67.247,41,66.971,41z"/><polygon fill="#b6b6b7" points="50.961,40.5 53.545,21.86 50.66,21.466 47.988,40.5"/><path fill="#472b29" d="M50.961,41h-2.973c-0.145,0-0.282-0.063-0.377-0.172c-0.095-0.109-0.138-0.254-0.118-0.397 l2.672-19.034c0.038-0.273,0.287-0.464,0.563-0.426l2.885,0.394c0.132,0.018,0.251,0.088,0.331,0.193 c0.08,0.106,0.115,0.239,0.097,0.371l-2.584,18.64C51.422,40.816,51.211,41,50.961,41z M48.563,40h1.962l2.455-17.712l-1.895-0.259 L48.563,40z"/><rect width="6" height="6.5" x="50.488" y="62" fill="#edb88c"/><path fill="#472b29" d="M56.487,69h-6c-0.276,0-0.5-0.224-0.5-0.5v-6c0-0.276,0.224-0.5,0.5-0.5h4 c0.276,0,0.5,0.224,0.5,0.5s-0.224,0.5-0.5,0.5h-3.5v5h5v-5.5c0-0.276,0.224-0.5,0.5-0.5s0.5,0.224,0.5,0.5v6 C56.987,68.776,56.764,69,56.487,69z"/><rect width="6" height="6" x="41.525" y="55.487" fill="#edb88c" transform="rotate(-45.001 44.525 58.487)"/><path fill="#472b29" d="M44.525,63.229c-0.128,0-0.256-0.049-0.354-0.146l-4.243-4.243c-0.195-0.195-0.195-0.512,0-0.707 l4.243-4.243c0.195-0.195,0.512-0.195,0.707,0l4.243,4.243c0.195,0.195,0.195,0.512,0,0.707l-4.243,4.243 C44.781,63.181,44.653,63.229,44.525,63.229z M40.989,58.487l3.536,3.536l3.536-3.536l-3.536-3.536L40.989,58.487z"/><path fill="#472b29" d="M53.487,73.75h-12c-0.138,0-0.25-0.112-0.25-0.25s0.112-0.25,0.25-0.25h12 c0.138,0,0.25,0.112,0.25,0.25S53.625,73.75,53.487,73.75z"/><path fill="#472b29" d="M40.119,35.607c-0.038,0-0.076-0.008-0.112-0.026c-0.124-0.062-0.173-0.212-0.112-0.335 c1.419-2.834,3.771-4.714,6.624-5.293c0.133-0.026,0.267,0.06,0.295,0.195c0.027,0.135-0.06,0.267-0.195,0.295 c-3.642,0.74-5.496,3.467-6.276,5.027C40.299,35.557,40.21,35.607,40.119,35.607z"/><path fill="#472b29" d="M66.082,39.567c-0.626-6.9-5.656-12.726-12.433-14.296c-0.377-0.085-0.754,0.147-0.84,0.524 c-0.088,0.377,0.147,0.753,0.523,0.84c6.385,1.479,11.071,7.097,11.396,13.659c0.019,0.373,0.326,0.666,0.699,0.666h0.426 c1.107,0,2.009,0.901,2.009,2.009s-0.901,2.009-2.009,2.009h-1.17H34.518h-0.422c-1.098,0-1.999-0.893-2.009-1.994 c0-1.121,0.901-2.033,2.009-2.033h0.392c0.373,0,0.681-0.293,0.699-0.666c0.379-7.638,6.685-13.798,14.356-14.024 c0.387-0.011,0.69-0.334,0.679-0.72s-0.341-0.663-0.72-0.679c-8.176,0.241-14.936,6.642-15.668,14.699 c-1.758,0.135-3.147,1.62-3.147,3.439c0.016,1.795,1.44,3.253,3.21,3.358l3.908,31.229c0.044,0.35,0.342,0.613,0.695,0.613h22 c0.352,0,0.648-0.261,0.694-0.609l4.104-31.213h0.556c1.88,0,3.409-1.53,3.409-3.41C69.264,41.165,67.856,39.684,66.082,39.567z M59.886,76.8H39.118l-3.807-30.422h28.576L59.886,76.8z"/><path fill="#472b29" d="M64.226,49.797h-5.267c-0.138,0-0.25-0.112-0.25-0.25s0.112-0.25,0.25-0.25h5.267 c0.138,0,0.25,0.112,0.25,0.25S64.363,49.797,64.226,49.797z M56.959,49.797h-3c-0.138,0-0.25-0.112-0.25-0.25 s0.112-0.25,0.25-0.25h3c0.138,0,0.25,0.112,0.25,0.25S57.097,49.797,56.959,49.797z M49.959,49.797h-15 c-0.138,0-0.25-0.112-0.25-0.25s0.112-0.25,0.25-0.25h15c0.138,0,0.25,0.112,0.25,0.25S50.097,49.797,49.959,49.797z"/></g></svg>