<svg id="Icon" xmlns="http://www.w3.org/2000/svg" viewBox="0 0 64 64"><defs><style>.cls-1{fill:#fd6066;}.cls-2{fill:#ffcb24;}.cls-3{fill:#bfbfbf;}.cls-4{fill:#bf981b;}.cls-5{fill:#be484c;}.cls-6{fill:#ffff48;}.cls-7{fill:#fff;}.cls-8{fill:#ffc0cc;}.cls-9{fill:none;stroke:#000;stroke-linecap:round;stroke-linejoin:round;stroke-width:2px;}</style></defs><title>Icon Color</title><path class="cls-1" d="M47.83,45.7q-.48,7.26-1,14.54h-29q-.49-7.27-1-14.54h9.33a7.3,7.3,0,0,0,12.67,0h9"/><path class="cls-1" d="M48.81,31.25c-.17,2.4-.32,4.79-.49,7.2H38.86a7.29,7.29,0,0,0-12.67,0H16.37c-.16-2.41-.32-4.8-.48-7.2.07-.1.27-.32.57-.64a21.19,21.19,0,0,1,2.66-2.33l.48-.34a22.52,22.52,0,0,1,3-1.79h0a21.55,21.55,0,0,1,3.64-1.39,3.86,3.86,0,0,1,.42-.12A21.57,21.57,0,0,1,30.48,24l.58,0c.49,0,1,0,1.5,0,.67,0,1.32,0,1.94.1l.25,0a22.82,22.82,0,0,1,3.4.63l.17.05a21.24,21.24,0,0,1,2.41.83c.4.16.77.33,1.14.5a20.6,20.6,0,0,1,1.93,1.05l.42.25a22.56,22.56,0,0,1,2.8,2.1,16.29,16.29,0,0,1,1.79,1.81"/><path class="cls-2" d="M19.6,27.94l-.48.34a21.19,21.19,0,0,0-2.66,2.33L12.59,14.73l3.56-.88L18.89,25l.71,2.91"/><path class="cls-2" d="M22.62,25.72v.43a22.52,22.52,0,0,0-3,1.79L18.89,25,17.77,9.75l3.67-.27,1.18,16.24"/><path class="cls-2" d="M26.28,12.24V24.75a21.55,21.55,0,0,0-3.64,1.39l0-.42V12.24h3.66"/><path class="cls-2" d="M31.7,13.39l-1.4.1.54,7.38L30.48,24a21.57,21.57,0,0,0-3.78.65L28.53,8.88l3.65.42Z"/><path class="cls-2" d="M34.75,24l-.25,0c-.62-.07-1.27-.09-1.94-.1-.51,0-1,0-1.5,0l-.22-3.07-.54-7.38,1.4-.1L34,13.23l.62,8.53Z"/><path class="cls-2" d="M38.85,5.72l-.7,18.94a22.82,22.82,0,0,0-3.4-.63l-.17-2.27.6-16.17Z"/><path class="cls-2" d="M46.9,4.18,44.71,23.12l-.49,4.22-.42-.25A20.6,20.6,0,0,0,41.87,26l1.56-13.49-1.18-.13,1-8.66,3.64.42"/><path class="cls-2" d="M51.41,10.36,47,29.44a22.56,22.56,0,0,0-2.8-2.1l.49-4.22L47.84,9.53l3.57.83"/><path class="cls-2" d="M43.43,12.55,41.87,26c-.37-.17-.74-.34-1.14-.5a21.24,21.24,0,0,0-2.41-.83l1.46-12.58,2.47.29,1.18.13"/><path class="cls-2" d="M48.32,38.45q-.24,3.61-.49,7.25h-9a7.3,7.3,0,0,1-12.67,0H16.86c-.17-2.42-.32-4.84-.49-7.25h9.82a7.29,7.29,0,0,1,12.67,0h9.46"/><path class="cls-3" d="M19.6,9.61l-1.83.14.34,4.6h0l-.34-4.6,1.83-.14m1.84-.13h0L22.06,18l-.62-8.55"/><path class="cls-4" d="M21.44,9.48l-1.84.13-1.83.14.34,4.6a2.2,2.2,0,0,1,.5-.06,2.1,2.1,0,0,1,2,1.61l1.78,7.27L22.06,18l-.62-8.55"/><polyline class="cls-3" points="22.62 21.32 22.62 23.92 22.62 23.93 22.62 21.33 22.62 21.32"/><polyline class="cls-4" points="22.62 21.33 22.62 23.93 22.89 25.03 22.62 21.33"/><path class="cls-5" d="M20.86,45.7h-4q.5,7.26,1,14.54h4q-.49-7.27-1-14.54"/><path class="cls-5" d="M19.78,27.81l-.18.13-.48.34a20.25,20.25,0,0,0-2.65,2.33h0a8,8,0,0,0-.55.6l0,0c.16,2.4.32,4.79.48,7.2h4c-.06-.92-.24-2-.24-3.6a26.52,26.52,0,0,1,.34-4.24l-.69-2.8"/><path class="cls-4" d="M16.15,13.85l-3.56.88,3.88,15.88a20.25,20.25,0,0,1,2.65-2.33l.48-.34L18.89,25,16.15,13.85"/><path class="cls-4" d="M18.79,23.76l.1,1.27.71,2.91.18-.13-1-4"/><path class="cls-4" d="M20.37,38.45h-4c.17,2.41.32,4.83.49,7.25h4c-.17-2.42-.32-4.84-.49-7.25"/><path class="cls-6" d="M43.26,3.76l-1,8.66,1.18.13L43,16.73q.73,3.29,1.49,6.55.89-6.6,1.78-13.2l.68-5.9-3.64-.42"/><path class="cls-6" d="M42,12.38c.34,1.45.67,2.9,1,4.35l.48-4.18-1.18-.13-.3,0"/><polyline class="cls-7" points="44.95 21.06 44.95 21.07 44.71 23.12 44.95 21.06"/><path class="cls-8" d="M47.83,45.7h-4q-.48,7.26-1,14.54h4q.49-7.27,1-14.54"/><path class="cls-8" d="M43.59,27l-.29,1.29a2.1,2.1,0,0,0,.57,2l.25.25a2.27,2.27,0,0,1,.62,1.72l-.42,6.25h4c.17-2.41.32-4.8.49-7.2A16.29,16.29,0,0,0,47,29.44a22.56,22.56,0,0,0-2.8-2.1l-.42-.25L43.59,27"/><path class="cls-6" d="M45,21.07,43.59,27l.21.13.42.25h0l.49-4.22L45,21.07"/><path class="cls-6" d="M47.84,9.53,44.71,23.12l-.49,4.22h0a22.56,22.56,0,0,1,2.8,2.1h0l4.39-19.08-3.57-.83"/><path class="cls-6" d="M48.32,38.45h-4q-.24,3.61-.49,7.25h4q.26-3.63.49-7.25"/><path class="cls-9" d="M47.83,45.7q-.48,7.26-1,14.54h-29q-.49-7.27-1-14.54h9.33a7.3,7.3,0,0,0,12.67,0Z"/><path class="cls-9" d="M48.81,31.25c-.17,2.4-.32,4.79-.49,7.2H38.86a7.29,7.29,0,0,0-12.67,0H16.37c-.16-2.41-.32-4.8-.48-7.2a7.61,7.61,0,0,1,.58-.64,19.81,19.81,0,0,1,2.66-2.33l.47-.34a22.52,22.52,0,0,1,3-1.79h0a21.55,21.55,0,0,1,3.64-1.39,3.86,3.86,0,0,1,.42-.12A21.57,21.57,0,0,1,30.48,24l.58,0q.74,0,1.5,0a17.36,17.36,0,0,1,1.94.1l.25,0a22.82,22.82,0,0,1,3.4.63l.17.05a21.24,21.24,0,0,1,2.41.83c.4.16.77.33,1.14.5a20.6,20.6,0,0,1,1.93,1.05l.42.25a22.56,22.56,0,0,1,2.8,2.1A16.29,16.29,0,0,1,48.81,31.25Z"/><path class="cls-9" d="M19.6,27.94l-.47.34a19.81,19.81,0,0,0-2.66,2.33L12.59,14.73l3.56-.88L18.89,25Z"/><path class="cls-9" d="M22.62,25.72v.43a22.52,22.52,0,0,0-3,1.79L18.89,25,17.77,9.75l3.67-.27Z"/><path class="cls-9" d="M26.28,12.24V24.75a21.55,21.55,0,0,0-3.64,1.39l0-.42V12.24Z"/><path class="cls-9" d="M31.7,13.39l-1.4.1.54,7.38L30.48,24a21.57,21.57,0,0,0-3.78.65L28.53,8.88l3.65.42Z"/><path class="cls-9" d="M34.75,24l-.25,0a17.36,17.36,0,0,0-1.94-.1q-.77,0-1.5,0l-.22-3.07-.54-7.38,1.4-.1L34,13.23l.62,8.53Z"/><path class="cls-9" d="M38.85,5.72l-.7,18.94a22.82,22.82,0,0,0-3.4-.63l-.17-2.27.6-16.17Z"/><path class="cls-9" d="M46.9,4.18,44.71,23.12l-.49,4.22-.42-.25A20.6,20.6,0,0,0,41.87,26l1.56-13.49-1.18-.13,1-8.66Z"/><path class="cls-9" d="M51.41,10.36,47,29.44a22.56,22.56,0,0,0-2.8-2.1l.49-4.22L47.84,9.53Z"/><path class="cls-9" d="M43.43,12.55,41.87,26c-.37-.17-.74-.34-1.14-.5a21.24,21.24,0,0,0-2.41-.83l1.46-12.58,2.47.29Z"/><path class="cls-9" d="M48.32,38.45q-.24,3.61-.49,7.25h-9a7.3,7.3,0,0,1-12.67,0H16.86c-.17-2.42-.32-4.84-.49-7.25h9.82a7.29,7.29,0,0,1,12.67,0Z"/></svg>