<svg xmlns="http://www.w3.org/2000/svg"  viewBox="0 0 100 100" width="100px" height="100px"><path fill="#ee3e54" d="M12.875,26.958c-1.105,0-2,0.895-2,2s0.895,2,2,2s2-0.895,2-2S13.98,26.958,12.875,26.958z"/><path fill="#f1bc19" d="M76.875,11.958c-0.551,0-1,0.449-1,1s0.449,1,1,1s1-0.449,1-1S77.426,11.958,76.875,11.958z"/><path fill="#fce0a2" d="M49.875,12.958c-20.434,0-37,16.566-37,37s16.566,37,37,37s37-16.566,37-37 S70.309,12.958,49.875,12.958z"/><path fill="#f1bc19" d="M82.875,10.958c-2.211,0-4,1.789-4,4s1.789,4,4,4s4-1.789,4-4S85.086,10.958,82.875,10.958z"/><path fill="#ee3e54" d="M86.875,21.958c-1.105,0-2,0.895-2,2s0.895,2,2,2s2-0.895,2-2S87.98,21.958,86.875,21.958z"/><path fill="#fbcd59" d="M80.875,73.958c-1.105,0-2,0.895-2,2s0.895,2,2,2s2-0.895,2-2S81.98,73.958,80.875,73.958z M14.875,58.958c-2.211,0-4,1.789-4,4c0,2.211,1.789,4,4,4s4-1.789,4-4C18.875,60.747,17.086,58.958,14.875,58.958z"/><path fill="#ee3e54" d="M24.875,84.958c-1.105,0-2,0.895-2,2s0.895,2,2,2s2-0.895,2-2S25.98,84.958,24.875,84.958z"/><path fill="#fff" d="M18.375,48.958c-1.379,0-2.5,1.121-2.5,2.5s1.121,2.5,2.5,2.5s2.5-1.121,2.5-2.5 S19.754,48.958,18.375,48.958z"/><path fill="#f1bc19" d="M20.875,64.958c-0.551,0-1,0.449-1,1s0.449,1,1,1s1-0.449,1-1S21.426,64.958,20.875,64.958z"/><path fill="#fff" d="M79.875,31.958c-0.551,0-1,0.449-1,1s0.449,1,1,1s1-0.449,1-1S80.426,31.958,79.875,31.958z"/><path fill="#8889b9" d="M57.878,42l-2.186-0.665l4.81-15.805C60.962,24.017,62.334,23,63.916,23H70.5v2.286h-6.584 c-0.568,0-1.061,0.365-1.226,0.909L57.878,42z"/><path fill="#472b29" d="M57.878,42.25c-0.024,0-0.049-0.003-0.073-0.011l-2.186-0.665c-0.063-0.02-0.116-0.063-0.147-0.122 s-0.038-0.127-0.019-0.19l4.811-15.806c0.491-1.619,1.959-2.707,3.652-2.707H70.5c0.138,0,0.25,0.112,0.25,0.25v2.286 c0,0.138-0.112,0.25-0.25,0.25h-6.584c-0.458,0-0.854,0.294-0.987,0.731l-4.812,15.806C58.084,42.181,57.985,42.25,57.878,42.25z M56.004,41.168l1.708,0.52l4.738-15.566c0.197-0.649,0.786-1.086,1.466-1.086h6.334V23.25h-6.334 c-1.472,0-2.747,0.945-3.174,2.352L56.004,41.168z"/><path fill="#f4989e" d="M53,68.826L53,68.826c0-0.423,0.244-0.795,0.614-1.001C60.249,64.146,63,52.19,63,38 c0-0.641-0.009-1.276-0.027-1.907C62.956,35.482,62.449,35,61.838,35H36.162c-0.611,0-1.117,0.482-1.135,1.093 C35.009,36.724,35,37.359,35,38c0,14.19,2.751,26.146,9.386,29.826C44.756,68.031,45,68.403,45,68.826v0 c0,0.478-0.306,0.888-0.75,1.063c-2.347,0.923-4.232,2.505-5.294,4.455C38.549,75.09,39.116,76,39.965,76h18.07 c0.849,0,1.416-0.91,1.009-1.656c-1.062-1.95-2.947-3.532-5.294-4.455C53.306,69.715,53,69.304,53,68.826z"/><path fill="#edf7f5" d="M57.308,28.663c0.113-0.37,0.192-0.756,0.192-1.163c0-2.209-1.791-4-4-4 c-0.372,0-0.725,0.067-1.067,0.162C52.474,23.447,52.5,23.227,52.5,23c0-1.933-1.567-3.5-3.5-3.5c-1.832,0-3.318,1.412-3.47,3.205 C43.207,23.349,41.5,25.472,41.5,28c-3.038,0-5.5,2.462-5.5,5.5s2.462,5.5,5.5,5.5c1.39,0,2.656-0.52,3.625-1.371 C45.834,38.75,47.076,39.5,48.5,39.5c1.424,0,2.666-0.75,3.375-1.871C52.883,38.774,54.355,39.5,56,39.5c3.038,0,5.5-2.462,5.5-5.5 C61.5,31.414,59.713,29.251,57.308,28.663z"/><path fill="#472b29" d="M56,40c-1.513,0-2.966-0.577-4.07-1.6c-0.851,1.011-2.094,1.6-3.43,1.6 c-1.359,0-2.622-0.609-3.473-1.653C44.004,39.094,42.771,39.5,41.5,39.5c-3.309,0-6-2.691-6-6c0-3.146,2.435-5.735,5.52-5.981 c0.192-2.372,1.791-4.43,4.055-5.197C45.397,20.406,47.029,19,49,19c2.206,0,4,1.794,4,4c0,0.011,0,0.022,0,0.034 C53.171,23.011,53.336,23,53.5,23c2.481,0,4.5,2.019,4.5,4.5c0,0.263-0.029,0.533-0.088,0.818C60.343,29.131,62,31.4,62,34 C62,37.309,59.309,40,56,40z M51.875,37.129c0.143,0,0.28,0.062,0.375,0.169C53.202,38.38,54.569,39,56,39c2.757,0,5-2.243,5-5 c0-2.308-1.567-4.303-3.812-4.851c-0.133-0.033-0.247-0.119-0.315-0.239s-0.084-0.262-0.044-0.394C56.946,28.137,57,27.813,57,27.5 c0-1.93-1.57-3.5-3.5-3.5c-0.282,0-0.578,0.046-0.933,0.144c-0.165,0.046-0.345,0.003-0.473-0.114 c-0.127-0.117-0.185-0.292-0.152-0.461C51.978,23.384,52,23.194,52,23c0-1.654-1.346-3-3-3c-1.562,0-2.84,1.181-2.973,2.748 c-0.018,0.208-0.163,0.383-0.364,0.439C43.506,23.785,42,25.764,42,28c0,0.276-0.224,0.5-0.5,0.5c-2.757,0-5,2.243-5,5s2.243,5,5,5 c1.21,0,2.38-0.443,3.295-1.247c0.109-0.097,0.26-0.141,0.401-0.12c0.145,0.021,0.273,0.104,0.352,0.228 C46.196,38.388,47.3,39,48.5,39s2.304-0.612,2.952-1.638c0.085-0.133,0.227-0.219,0.384-0.231 C51.849,37.13,51.862,37.129,51.875,37.129z"/><rect width="8" height="3" x="45" y="67" fill="#edf7f5"/><path fill="#edf7f5" d="M57.674,76c1.062,0,1.69-1.168,1.13-2.07C56.989,71.005,53.284,69,49,69s-7.989,2.005-9.804,4.93 c-0.56,0.902,0.068,2.07,1.13,2.07H57.674z"/><path fill="#472b29" d="M45,75.5c-0.276,0-0.5-0.224-0.5-0.5c0-3.246,2.631-4.861,2.743-4.929 c0.237-0.142,0.542-0.065,0.685,0.17c0.143,0.236,0.066,0.543-0.169,0.687C47.666,70.984,45.5,72.332,45.5,75 C45.5,75.276,45.276,75.5,45,75.5z"/><path fill="#472b29" d="M53,75.5c-0.276,0-0.5-0.224-0.5-0.5c0-2.668-2.166-4.016-2.259-4.072 c-0.235-0.144-0.312-0.45-0.169-0.687c0.145-0.235,0.449-0.312,0.685-0.17C50.869,70.139,53.5,71.754,53.5,75 C53.5,75.276,53.276,75.5,53,75.5z"/><rect width="26" height="6" x="36" y="36" fill="#edf7f5"/><path fill="#472b29" d="M36.429,36.051h0.005H36.429 M61.58,36.4c0.013,0.53,0.02,1.063,0.02,1.6 c0,15.162-3.172,25.595-8.704,28.623c-0.799,0.438-1.296,1.262-1.296,2.151v0.112c0,1.015,0.624,1.913,1.589,2.287 c1.902,0.737,3.437,1.942,4.382,3.427H40.429c0.945-1.485,2.48-2.69,4.382-3.427c0.965-0.374,1.589-1.271,1.589-2.287v-0.112 c0-0.889-0.497-1.714-1.296-2.152C39.572,63.595,36.4,53.162,36.4,38c0-0.537,0.007-1.07,0.02-1.6H61.58 M61.921,35H36.079 c-0.565,0-1.033,0.446-1.049,1.01C35.01,36.668,35,37.331,35,38c0,14.223,2.764,26.201,9.431,29.851 C44.775,68.039,45,68.383,45,68.774v0.112c0,0.441-0.283,0.822-0.695,0.981c-2.422,0.939-4.359,2.579-5.416,4.601 C38.526,75.165,39.039,76,39.824,76h18.352c0.785,0,1.298-0.835,0.935-1.531c-1.057-2.023-2.994-3.663-5.416-4.601 C53.283,69.708,53,69.328,53,68.886v-0.112c0-0.391,0.225-0.736,0.569-0.924C60.236,64.201,63,52.223,63,38 c0-0.669-0.01-1.332-0.03-1.99C62.954,35.446,62.486,35,61.921,35L61.921,35z"/><path fill="#472b29" d="M39.5,43h-3c-0.276,0-0.5-0.224-0.5-0.5s0.224-0.5,0.5-0.5h3c0.276,0,0.5,0.224,0.5,0.5 S39.776,43,39.5,43z"/><path fill="#472b29" d="M46.5,43h-5c-0.276,0-0.5-0.224-0.5-0.5s0.224-0.5,0.5-0.5h5c0.276,0,0.5,0.224,0.5,0.5 S46.776,43,46.5,43z"/><path fill="#472b29" d="M52.5,68H45c-0.276,0-0.5-0.224-0.5-0.5S44.724,67,45,67h7.5c0.276,0,0.5,0.224,0.5,0.5 S52.776,68,52.5,68z"/><g><path fill="#472b29" d="M53.5,71h-8c-0.276,0-0.5-0.224-0.5-0.5s0.224-0.5,0.5-0.5h8c0.276,0,0.5,0.224,0.5,0.5 S53.776,71,53.5,71z"/></g><g><path fill="#472b29" d="M61.5,43h-12c-0.276,0-0.5-0.224-0.5-0.5s0.224-0.5,0.5-0.5h12c0.276,0,0.5,0.224,0.5,0.5 S61.776,43,61.5,43z"/></g><g><path fill="#472b29" d="M52.35,31.324c-0.16,0-0.317-0.077-0.414-0.22c-0.511-0.757-1.223-1.349-2.059-1.711 c-0.253-0.11-0.369-0.404-0.26-0.658c0.11-0.253,0.4-0.37,0.658-0.259c1.011,0.438,1.871,1.154,2.488,2.069 c0.155,0.229,0.095,0.54-0.135,0.694C52.544,31.296,52.446,31.324,52.35,31.324z"/></g><g><path fill="#472b29" d="M44.562,30.258c-0.141,0-0.281-0.06-0.38-0.175c-0.18-0.21-0.154-0.526,0.056-0.705 c0.984-0.84,2.24-1.329,3.535-1.374L47.979,28c0.276,0,0.5,0.224,0.5,0.5s-0.224,0.5-0.5,0.5l-0.17,0.003 c-1.088,0.039-2.098,0.431-2.924,1.136C44.792,30.219,44.677,30.258,44.562,30.258z"/></g><g><path fill="#472b29" d="M42.708,34.271c-0.276,0-0.5-0.224-0.5-0.5c0-0.991,0.256-1.969,0.739-2.827 c0.136-0.241,0.443-0.325,0.681-0.19c0.241,0.135,0.326,0.44,0.19,0.681c-0.399,0.708-0.61,1.517-0.61,2.336 C43.208,34.047,42.984,34.271,42.708,34.271z"/></g><g><path fill="#472b29" d="M43.396,24.375c-0.128,0-0.256-0.049-0.354-0.146c-0.195-0.195-0.195-0.512,0-0.707 c0.097-0.096,2.397-2.334,6.428-1.06c0.264,0.083,0.409,0.364,0.326,0.627c-0.084,0.263-0.365,0.41-0.627,0.326 c-3.463-1.094-5.401,0.794-5.42,0.813C43.651,24.326,43.523,24.375,43.396,24.375z"/></g><g><path fill="#472b29" d="M54.688,29.167c-0.228,0-0.434-0.157-0.487-0.388c-0.062-0.269,0.106-0.537,0.375-0.599 c0.06-0.014,1.485-0.335,2.851-0.002c0.269,0.065,0.433,0.336,0.367,0.604s-0.337,0.434-0.604,0.367 c-1.13-0.276-2.378,0.002-2.391,0.005C54.762,29.163,54.725,29.167,54.688,29.167z"/></g><g><path fill="#472b29" d="M44.688,64.021c-0.071,0-0.142-0.03-0.19-0.088c-1.414-1.668-2.619-4.082-3.582-7.175 c-0.041-0.132,0.032-0.272,0.164-0.313s0.271,0.033,0.313,0.165c0.943,3.028,2.116,5.383,3.486,7 c0.09,0.105,0.076,0.263-0.028,0.353C44.802,64.001,44.745,64.021,44.688,64.021z"/></g><g><path fill="#472b29" d="M40.668,55.239c-0.111,0-0.212-0.074-0.242-0.187c-0.322-1.229-0.61-2.548-0.856-3.922 c-0.024-0.136,0.066-0.266,0.202-0.29c0.131-0.023,0.266,0.066,0.29,0.202c0.244,1.361,0.529,2.667,0.849,3.883 c0.034,0.134-0.045,0.271-0.179,0.305C40.71,55.236,40.688,55.239,40.668,55.239z"/></g><g><path fill="#472b29" d="M39.51,49.457c-0.122,0-0.229-0.089-0.247-0.214c-0.349-2.381-0.449-4.066-0.45-4.083 c-0.008-0.138,0.098-0.256,0.235-0.264c0.135-0.011,0.256,0.097,0.265,0.235c0.001,0.017,0.1,1.682,0.444,4.04 c0.021,0.137-0.074,0.264-0.211,0.284C39.533,49.456,39.521,49.457,39.51,49.457z"/></g><g><path fill="#472b29" d="M62.188,25.604c-0.032,0-0.065-0.006-0.097-0.02l-1.292-0.542c-0.127-0.053-0.188-0.2-0.134-0.327 c0.053-0.127,0.201-0.187,0.327-0.134l1.292,0.542c0.127,0.053,0.188,0.2,0.134,0.327C62.378,25.546,62.285,25.604,62.188,25.604z"/><path fill="#472b29" d="M62.708,24.854c-0.083,0-0.164-0.042-0.212-0.117l-0.666-1.063 c-0.073-0.117-0.038-0.271,0.079-0.345c0.116-0.072,0.271-0.038,0.345,0.079l0.666,1.063c0.073,0.117,0.038,0.271-0.079,0.345 C62.8,24.842,62.754,24.854,62.708,24.854z"/><path fill="#472b29" d="M63.604,24.729c-0.135,0-0.246-0.107-0.25-0.242l-0.042-1.375 c-0.004-0.138,0.104-0.253,0.242-0.258c0.003,0,0.006,0,0.008,0c0.135,0,0.246,0.107,0.25,0.242l0.042,1.375 c0.004,0.138-0.104,0.253-0.242,0.258C63.609,24.729,63.606,24.729,63.604,24.729z"/></g></svg>