<svg xmlns="http://www.w3.org/2000/svg"  viewBox="0 0 100 100" width="100px" height="100px"><circle cx="77" cy="14" r="1" fill="#f1bc19"/><circle cx="50" cy="51" r="37" fill="#e6edb7"/><circle cx="83" cy="16" r="4" fill="#f1bc19"/><circle cx="87" cy="25" r="2" fill="#88ae45"/><circle cx="81" cy="77" r="2" fill="#fbcd59"/><circle cx="15" cy="64" r="4" fill="#fbcd59"/><circle cx="25" cy="88" r="2" fill="#88ae45"/><circle cx="17.5" cy="46.5" r="2.5" fill="#fff"/><circle cx="81.5" cy="40.5" r="1.5" fill="#fff"/><circle cx="40.5" cy="38.5" r="5" fill="#fbcd59"/><path fill="#472b29" d="M40.5,44c-3.033,0-5.5-2.467-5.5-5.5s2.467-5.5,5.5-5.5s5.5,2.467,5.5,5.5S43.533,44,40.5,44z M40.5,34c-2.481,0-4.5,2.019-4.5,4.5s2.019,4.5,4.5,4.5s4.5-2.019,4.5-4.5S42.981,34,40.5,34z"/><circle cx="65.5" cy="39.5" r="5" fill="#fbcd59"/><path fill="#472b29" d="M65.5,45c-3.033,0-5.5-2.467-5.5-5.5s2.467-5.5,5.5-5.5s5.5,2.467,5.5,5.5S68.533,45,65.5,45z M65.5,35c-2.481,0-4.5,2.019-4.5,4.5s2.019,4.5,4.5,4.5s4.5-2.019,4.5-4.5S67.981,35,65.5,35z"/><path fill="#ce942b" d="M26.511,68.3c-0.535,0-0.92-0.128-1.179-0.392c-0.618-0.631-0.585-2.095-0.56-3.271 c0.005-0.249,0.011-0.491,0.011-0.72c0-15.084,12.186-25.217,23.568-25.217c13.021,0,23.647,13.214,23.942,29.6H26.511z"/><path fill="#472b29" d="M48.351,39.4c12.451,0,22.647,12.526,23.223,28.2H26.511c-0.332,0-0.561-0.061-0.678-0.182 c-0.412-0.421-0.381-1.832-0.361-2.766c0.006-0.255,0.011-0.502,0.011-0.736C25.483,49.251,37.308,39.4,48.351,39.4 M48.351,38 c-12.277,0-24.268,10.855-24.268,25.917c0,2.022-0.422,5.083,2.428,5.083H73C73,52,61.964,38,48.351,38L48.351,38z"/><path fill="#88ae45" d="M26.5,53.5c0,0-3.938-8.938,0-9c2-0.032,3-1,3-4s6.188-1.625,6.188-1.625s4.506,2.849,5.813-2.375 c1-4,2.438-6.375,7-4c3.657,1.904,3.116,1.063,6.188,0.313C57.5,32.125,59.5,32.5,60.5,35.5c0.894,2.683,2,3,5,4s6,2,6,4s2,4,4,5 c4,2,1.333,9.083-1,12s-42-3-42-3L26.5,53.5z"/><path fill="#472b29" d="M68.96,61.778c-10.493,0-31.406-3.019-36.534-3.784l-0.204-0.078l-6.122-4.081l-0.059-0.134 c-0.29-0.659-2.793-6.501-1.336-8.775c0.265-0.414,0.791-0.911,1.786-0.927C28.081,43.975,29,43.394,29,40.5 c0-0.684,0.27-1.263,0.78-1.672c1.687-1.353,5.578-0.539,6.016-0.441l0.158,0.065c0.018,0.011,1.802,1.114,3.259,0.527 c0.85-0.342,1.456-1.217,1.802-2.6c0.542-2.166,1.275-4.275,2.967-5.037c1.218-0.548,2.771-0.314,4.749,0.715 c2.57,1.338,2.83,1.248,4.073,0.809c0.442-0.156,0.991-0.35,1.765-0.539c2.323-0.569,5.154-0.739,6.405,3.015 c0.797,2.389,1.655,2.675,4.497,3.621l0.188,0.062C68.776,40.065,72,41.14,72,43.5c0,1.767,1.873,3.628,3.724,4.553 c1.155,0.578,1.892,1.556,2.188,2.908c0.714,3.251-1.381,7.8-3.021,9.851C74.337,61.504,72.12,61.778,68.96,61.778z M32.684,57.022 c19.063,2.839,40.031,4.911,41.425,3.166c1.581-1.976,3.442-6.207,2.826-9.012c-0.229-1.043-0.787-1.792-1.659-2.228 C73.217,47.917,71,45.774,71,43.5c0-1.64-2.876-2.598-5.658-3.526l-0.187-0.062c-2.867-0.954-4.175-1.39-5.129-4.254 c-0.807-2.419-2.271-3.081-5.22-2.36c-0.726,0.177-1.249,0.362-1.669,0.51c-1.515,0.534-2.027,0.614-4.868-0.865 c-1.688-0.879-2.958-1.104-3.876-0.69c-1.04,0.468-1.76,1.774-2.408,4.368c-0.428,1.714-1.237,2.82-2.404,3.288 c-1.749,0.7-3.662-0.318-4.08-0.563c-1.125-0.237-4.009-0.611-5.095,0.262C30.129,39.83,30,40.114,30,40.5 c0,3.074-1.077,4.462-3.492,4.5c-0.598,0.009-0.834,0.271-0.959,0.467c-0.966,1.507,0.597,5.943,1.352,7.699L32.684,57.022z"/><circle cx="70.5" cy="50.5" r="5" fill="#fbcd59"/><path fill="#472b29" d="M70.5,56c-3.033,0-5.5-2.467-5.5-5.5s2.467-5.5,5.5-5.5s5.5,2.467,5.5,5.5S73.533,56,70.5,56z M70.5,46c-2.481,0-4.5,2.019-4.5,4.5s2.019,4.5,4.5,4.5s4.5-2.019,4.5-4.5S72.981,46,70.5,46z"/><circle cx="41.5" cy="42.5" r="5" fill="#ee3e54"/><path fill="#472b29" d="M41.5,48c-3.033,0-5.5-2.467-5.5-5.5s2.467-5.5,5.5-5.5s5.5,2.467,5.5,5.5S44.533,48,41.5,48z M41.5,38c-2.481,0-4.5,2.019-4.5,4.5s2.019,4.5,4.5,4.5s4.5-2.019,4.5-4.5S43.981,38,41.5,38z"/><g><circle cx="53.5" cy="40.5" r="5" fill="#88ae45"/><path fill="#472b29" d="M53.5,46c-3.033,0-5.5-2.467-5.5-5.5s2.467-5.5,5.5-5.5s5.5,2.467,5.5,5.5S56.533,46,53.5,46z M53.5,36c-2.481,0-4.5,2.019-4.5,4.5s2.019,4.5,4.5,4.5s4.5-2.019,4.5-4.5S55.981,36,53.5,36z"/></g><g><circle cx="28.5" cy="56.5" r="5" fill="#fbcd59"/><path fill="#472b29" d="M28.5,62c-3.033,0-5.5-2.467-5.5-5.5s2.467-5.5,5.5-5.5s5.5,2.467,5.5,5.5S31.533,62,28.5,62z M28.5,52c-2.481,0-4.5,2.019-4.5,4.5s2.019,4.5,4.5,4.5s4.5-2.019,4.5-4.5S30.981,52,28.5,52z"/></g><g><circle cx="63" cy="42" r="4.5" fill="#ee3e54"/><path fill="#472b29" d="M63,47c-2.757,0-5-2.243-5-5s2.243-5,5-5s5,2.243,5,5S65.757,47,63,47z M63,38c-2.206,0-4,1.794-4,4 s1.794,4,4,4s4-1.794,4-4S65.206,38,63,38z"/></g><g><circle cx="31" cy="52" r="4.5" fill="#ee3e54"/><path fill="#472b29" d="M31,57c-2.757,0-5-2.243-5-5s2.243-5,5-5s5,2.243,5,5S33.757,57,31,57z M31,48c-2.206,0-4,1.794-4,4 s1.794,4,4,4s4-1.794,4-4S33.206,48,31,48z"/></g><g><path fill="#eab436" d="M27.827,68.3c1.059-1.615,1.246-3.553,1.246-4.714C29.073,48.92,41.419,38.7,52.5,38.7 c13.067,0,23.698,12.314,23.698,27.45c0,1.206-0.712,2.15-1.621,2.15H27.827z"/><path fill="#472b29" d="M52.5,39.4c5.827,0,11.639,2.753,15.946,7.554c4.547,5.068,7.052,11.886,7.052,19.196 c0,0.786-0.422,1.45-0.92,1.45H28.996c0.645-1.478,0.776-3.014,0.776-4.014C29.772,49.333,41.75,39.4,52.5,39.4 M52.5,38 c-12.071,0-24.128,11-24.128,25.586c0,1.775-0.456,4.027-2.081,5.414h48.286c1.345,0,2.32-1.307,2.32-2.85 C76.898,50,65.272,38,52.5,38L52.5,38z"/></g><g><path fill="#472b29" d="M39.5,66h-6c-0.276,0-0.5-0.224-0.5-0.5s0.224-0.5,0.5-0.5h6c0.276,0,0.5,0.224,0.5,0.5 S39.776,66,39.5,66z"/></g><g><path fill="#472b29" d="M45.5,66h-3c-0.276,0-0.5-0.224-0.5-0.5s0.224-0.5,0.5-0.5h3c0.276,0,0.5,0.224,0.5,0.5 S45.776,66,45.5,66z"/></g><g><path fill="#472b29" d="M71.5,66h-23c-0.276,0-0.5-0.224-0.5-0.5s0.224-0.5,0.5-0.5h23c0.276,0,0.5,0.224,0.5,0.5 S71.776,66,71.5,66z"/></g><g><path fill="#472b29" d="M72.417,60.938c-0.114,0-0.216-0.078-0.244-0.193c-0.846-3.627-2.225-6.861-4.097-9.611 c-0.078-0.114-0.048-0.27,0.066-0.347c0.114-0.077,0.27-0.049,0.347,0.066c1.907,2.802,3.31,6.092,4.171,9.779 c0.031,0.135-0.052,0.269-0.187,0.3C72.454,60.936,72.435,60.938,72.417,60.938z"/></g><g><path fill="#472b29" d="M66.838,49.329c-0.071,0-0.143-0.031-0.192-0.09c-1.298-1.554-2.785-2.925-4.417-4.074 c-0.113-0.079-0.14-0.235-0.061-0.348c0.079-0.113,0.235-0.14,0.349-0.061c1.668,1.174,3.187,2.574,4.513,4.162 c0.088,0.106,0.074,0.264-0.032,0.352C66.952,49.31,66.895,49.329,66.838,49.329z"/></g><g><path fill="#472b29" d="M60.57,44.066c-0.042,0-0.085-0.01-0.124-0.033c-2.527-1.442-4.457-1.868-4.477-1.872 c-0.135-0.029-0.221-0.162-0.191-0.297c0.029-0.135,0.159-0.221,0.296-0.192c0.082,0.017,2.019,0.443,4.62,1.926 c0.12,0.068,0.162,0.221,0.093,0.341C60.741,44.02,60.656,44.066,60.57,44.066z"/></g><g><circle cx="35.5" cy="58.5" r="1" fill="#ce942b"/><path fill="#472b29" d="M35.5,59.75c-0.689,0-1.25-0.561-1.25-1.25s0.561-1.25,1.25-1.25s1.25,0.561,1.25,1.25 S36.189,59.75,35.5,59.75z M35.5,57.75c-0.414,0-0.75,0.336-0.75,0.75s0.336,0.75,0.75,0.75s0.75-0.336,0.75-0.75 S35.914,57.75,35.5,57.75z"/></g><g><circle cx="38.5" cy="54.5" r="1" fill="#ce942b"/><path fill="#472b29" d="M38.5,55.75c-0.689,0-1.25-0.561-1.25-1.25s0.561-1.25,1.25-1.25s1.25,0.561,1.25,1.25 S39.189,55.75,38.5,55.75z M38.5,53.75c-0.414,0-0.75,0.336-0.75,0.75s0.336,0.75,0.75,0.75s0.75-0.336,0.75-0.75 S38.914,53.75,38.5,53.75z"/></g><g><circle cx="41.5" cy="58.5" r="1" fill="#ce942b"/><path fill="#472b29" d="M41.5,59.75c-0.689,0-1.25-0.561-1.25-1.25s0.561-1.25,1.25-1.25s1.25,0.561,1.25,1.25 S42.189,59.75,41.5,59.75z M41.5,57.75c-0.414,0-0.75,0.336-0.75,0.75s0.336,0.75,0.75,0.75s0.75-0.336,0.75-0.75 S41.914,57.75,41.5,57.75z"/></g></svg>