<svg width="20" height="20" viewBox="0 0 20 20" fill="none" xmlns="http://www.w3.org/2000/svg">
<path d="M18.3333 2H16.6666V1.33333C16.6666 0.979709 16.5262 0.640571 16.2761 0.390523C16.0261 0.140475 15.6869 0 15.3333 0C14.9797 0 14.6405 0.140475 14.3905 0.390523C14.1404 0.640571 14 0.979709 14 1.33333V2H11.3333V1.33333C11.3333 0.979709 11.1928 0.640571 10.9428 0.390523C10.6927 0.140475 10.3536 0 9.99998 0C9.64636 0 9.30722 0.140475 9.05717 0.390523C8.80712 0.640571 8.66665 0.979709 8.66665 1.33333V2H5.99999V1.33333C5.99999 0.979709 5.85951 0.640571 5.60946 0.390523C5.35941 0.140475 5.02028 0 4.66666 0C4.31303 0 3.9739 0.140475 3.72385 0.390523C3.4738 0.640571 3.33333 0.979709 3.33333 1.33333V2H1.66666C1.22464 2 0.800714 2.17559 0.488154 2.48815C0.175594 2.80071 0 3.22463 0 3.66666V17C0 17.442 0.175594 17.8659 0.488154 18.1785C0.800714 18.491 1.22464 18.6666 1.66666 18.6666H11C11.0884 18.6666 11.1732 18.6315 11.2357 18.569C11.2982 18.5065 11.3333 18.4217 11.3333 18.3333C11.3333 18.2449 11.2982 18.1601 11.2357 18.0976C11.1732 18.0351 11.0884 18 11 18H1.66666C1.40169 17.9992 1.1478 17.8936 0.960432 17.7062C0.773067 17.5188 0.667457 17.2649 0.666665 17V6.66665H19.3333V12.3333C19.3333 12.4217 19.3684 12.5065 19.4309 12.569C19.4934 12.6315 19.5782 12.6666 19.6666 12.6666C19.755 12.6666 19.8398 12.6315 19.9023 12.569C19.9648 12.5065 20 12.4217 20 12.3333V3.66666C20 3.22463 19.8244 2.80071 19.5118 2.48815C19.1992 2.17559 18.7753 2 18.3333 2ZM14.6666 1.33333C14.6666 1.15652 14.7369 0.986951 14.8619 0.861927C14.9869 0.736903 15.1565 0.666665 15.3333 0.666665C15.5101 0.666665 15.6797 0.736903 15.8047 0.861927C15.9297 0.986951 16 1.15652 16 1.33333V3.33333C16 3.51014 15.9297 3.6797 15.8047 3.80473C15.6797 3.92975 15.5101 3.99999 15.3333 3.99999C15.1565 3.99999 14.9869 3.92975 14.8619 3.80473C14.7369 3.6797 14.6666 3.51014 14.6666 3.33333V1.33333ZM9.33331 1.33333C9.33331 1.15652 9.40355 0.986951 9.52857 0.861927C9.6536 0.736903 9.82317 0.666665 9.99998 0.666665C10.1768 0.666665 10.3464 0.736903 10.4714 0.861927C10.5964 0.986951 10.6666 1.15652 10.6666 1.33333V3.33333C10.6666 3.51014 10.5964 3.6797 10.4714 3.80473C10.3464 3.92975 10.1768 3.99999 9.99998 3.99999C9.82317 3.99999 9.6536 3.92975 9.52857 3.80473C9.40355 3.6797 9.33331 3.51014 9.33331 3.33333V1.33333ZM3.99999 1.33333C3.99999 1.15652 4.07023 0.986951 4.19525 0.861927C4.32028 0.736903 4.48985 0.666665 4.66666 0.666665C4.84347 0.666665 5.01304 0.736903 5.13806 0.861927C5.26308 0.986951 5.33332 1.15652 5.33332 1.33333V3.33333C5.33332 3.51014 5.26308 3.6797 5.13806 3.80473C5.01304 3.92975 4.84347 3.99999 4.66666 3.99999C4.48985 3.99999 4.32028 3.92975 4.19525 3.80473C4.07023 3.6797 3.99999 3.51014 3.99999 3.33333V1.33333ZM19.3333 5.99999H0.666665V3.66666C0.667457 3.40169 0.773067 3.14779 0.960432 2.96043C1.1478 2.77306 1.40169 2.66745 1.66666 2.66666H3.33333V3.33333C3.33333 3.68695 3.4738 4.02608 3.72385 4.27613C3.9739 4.52618 4.31303 4.66666 4.66666 4.66666C5.02028 4.66666 5.35941 4.52618 5.60946 4.27613C5.85951 4.02608 5.99999 3.68695 5.99999 3.33333V2.66666H8.66665V3.33333C8.66665 3.68695 8.80712 4.02608 9.05717 4.27613C9.30722 4.52618 9.64636 4.66666 9.99998 4.66666C10.3536 4.66666 10.6927 4.52618 10.9428 4.27613C11.1928 4.02608 11.3333 3.68695 11.3333 3.33333V2.66666H14V3.33333C14 3.68695 14.1404 4.02608 14.3905 4.27613C14.6405 4.52618 14.9797 4.66666 15.3333 4.66666C15.6869 4.66666 16.0261 4.52618 16.2761 4.27613C16.5262 4.02608 16.6666 3.68695 16.6666 3.33333V2.66666H18.3333C18.5983 2.66745 18.8522 2.77306 19.0395 2.96043C19.2269 3.14779 19.3325 3.40169 19.3333 3.66666V5.99999Z" fill="#8f5b4f"/>
<path d="M9.33463 8.99967C9.33463 8.82286 9.26439 8.65329 9.13937 8.52827C9.01434 8.40325 8.84477 8.33301 8.66796 8.33301H7.33463C7.15782 8.33301 6.98825 8.40325 6.86323 8.52827C6.73821 8.65329 6.66797 8.82286 6.66797 8.99967V9.99967C6.66797 10.1765 6.73821 10.3461 6.86323 10.4711C6.98825 10.5961 7.15782 10.6663 7.33463 10.6663H8.66796C8.84477 10.6663 9.01434 10.5961 9.13937 10.4711C9.26439 10.3461 9.33463 10.1765 9.33463 9.99967V8.99967ZM7.33463 9.99967V8.99967H8.66796V9.99967H7.33463Z" fill="#8f5b4f"/>
<path d="M5.33268 8.99967C5.33268 8.82286 5.26244 8.65329 5.13741 8.52827C5.01239 8.40325 4.84282 8.33301 4.66601 8.33301H3.33268C3.15587 8.33301 2.9863 8.40325 2.86128 8.52827C2.73625 8.65329 2.66602 8.82286 2.66602 8.99967V9.99967C2.66602 10.1765 2.73625 10.3461 2.86128 10.4711C2.9863 10.5961 3.15587 10.6663 3.33268 10.6663H4.66601C4.84282 10.6663 5.01239 10.5961 5.13741 10.4711C5.26244 10.3461 5.33268 10.1765 5.33268 9.99967V8.99967ZM3.33268 9.99967V8.99967H4.66601V9.99967H3.33268Z" fill="#8f5b4f"/>
<path d="M16.666 10.6663C16.8428 10.6663 17.0124 10.5961 17.1374 10.4711C17.2624 10.3461 17.3327 10.1765 17.3327 9.99967V8.99967C17.3327 8.82286 17.2624 8.65329 17.1374 8.52827C17.0124 8.40325 16.8428 8.33301 16.666 8.33301H15.3327C15.1559 8.33301 14.9863 8.40325 14.8613 8.52827C14.7363 8.65329 14.666 8.82286 14.666 8.99967V9.99967C14.666 10.1765 14.7363 10.3461 14.8613 10.4711C14.9863 10.5961 15.1559 10.6663 15.3327 10.6663H16.666ZM15.3327 8.99967H16.666V9.99967H15.3327V8.99967Z" fill="#8f5b4f"/>
<path d="M9.33463 11.9997C9.33463 11.8229 9.26439 11.6533 9.13937 11.5283C9.01434 11.4032 8.84477 11.333 8.66796 11.333H7.33463C7.15782 11.333 6.98825 11.4032 6.86323 11.5283C6.73821 11.6533 6.66797 11.8229 6.66797 11.9997V12.9997C6.66797 13.1765 6.73821 13.3461 6.86323 13.4711C6.98825 13.5961 7.15782 13.6663 7.33463 13.6663H8.66796C8.84477 13.6663 9.01434 13.5961 9.13937 13.4711C9.26439 13.3461 9.33463 13.1765 9.33463 12.9997V11.9997ZM7.33463 12.9997V11.9997H8.66796V12.9997H7.33463Z" fill="#8f5b4f"/>
<path d="M5.33268 11.9997C5.33268 11.8229 5.26244 11.6533 5.13741 11.5283C5.01239 11.4032 4.84282 11.333 4.66601 11.333H3.33268C3.15587 11.333 2.9863 11.4032 2.86128 11.5283C2.73625 11.6533 2.66602 11.8229 2.66602 11.9997V12.9997C2.66602 13.1765 2.73625 13.3461 2.86128 13.4711C2.9863 13.5961 3.15587 13.6663 3.33268 13.6663H4.66601C4.84282 13.6663 5.01239 13.5961 5.13741 13.4711C5.26244 13.3461 5.33268 13.1765 5.33268 12.9997V11.9997ZM3.33268 12.9997V11.9997H4.66601V12.9997H3.33268Z" fill="#8f5b4f"/>
<path d="M8.66796 14.333H7.33463C7.15782 14.333 6.98825 14.4032 6.86323 14.5283C6.73821 14.6533 6.66797 14.8229 6.66797 14.9997V15.9997C6.66797 16.1765 6.73821 16.3461 6.86323 16.4711C6.98825 16.5961 7.15782 16.6663 7.33463 16.6663H8.66796C8.84477 16.6663 9.01434 16.5961 9.13937 16.4711C9.26439 16.3461 9.33463 16.1765 9.33463 15.9997V14.9997C9.33463 14.8229 9.26439 14.6533 9.13937 14.5283C9.01434 14.4032 8.84477 14.333 8.66796 14.333ZM7.33463 15.9997V14.9997H8.66796V15.9997H7.33463Z" fill="#8f5b4f"/>
<path d="M11.3327 10.6663H12.666C12.8428 10.6663 13.0124 10.5961 13.1374 10.4711C13.2624 10.3461 13.3327 10.1765 13.3327 9.99967V8.99967C13.3327 8.82286 13.2624 8.65329 13.1374 8.52827C13.0124 8.40325 12.8428 8.33301 12.666 8.33301H11.3327C11.1559 8.33301 10.9863 8.40325 10.8613 8.52827C10.7363 8.65329 10.666 8.82286 10.666 8.99967V9.99967C10.666 10.1765 10.7363 10.3461 10.8613 10.4711C10.9863 10.5961 11.1559 10.6663 11.3327 10.6663ZM11.3327 8.99967H12.666V9.99967H11.3327V8.99967Z" fill="#8f5b4f"/>
<path d="M10.666 12.9997C10.666 13.1765 10.7363 13.3461 10.8613 13.4711C10.9863 13.5961 11.1559 13.6663 11.3327 13.6663C11.4211 13.6663 11.5059 13.6312 11.5684 13.5687C11.6309 13.5062 11.666 13.4214 11.666 13.333C11.666 13.2446 11.6309 13.1598 11.5684 13.0973C11.5059 13.0348 11.4211 12.9997 11.3327 12.9997V11.9997H12.666C12.7544 11.9997 12.8392 11.9646 12.9017 11.902C12.9642 11.8395 12.9993 11.7547 12.9993 11.6663C12.9993 11.5779 12.9642 11.4932 12.9017 11.4306C12.8392 11.3681 12.7544 11.333 12.666 11.333H11.3327C11.1559 11.333 10.9863 11.4032 10.8613 11.5283C10.7363 11.6533 10.666 11.8229 10.666 11.9997V12.9997Z" fill="#8f5b4f"/>
<path d="M4.66601 14.333H3.33268C3.15587 14.333 2.9863 14.4032 2.86128 14.5283C2.73625 14.6533 2.66602 14.8229 2.66602 14.9997V15.9997C2.66602 16.1765 2.73625 16.3461 2.86128 16.4711C2.9863 16.5961 3.15587 16.6663 3.33268 16.6663H4.66601C4.84282 16.6663 5.01239 16.5961 5.13741 16.4711C5.26244 16.3461 5.33268 16.1765 5.33268 15.9997V14.9997C5.33268 14.8229 5.26244 14.6533 5.13741 14.5283C5.01239 14.4032 4.84282 14.333 4.66601 14.333ZM3.33268 15.9997V14.9997H4.66601V15.9997H3.33268Z" fill="#8f5b4f"/>
<path d="M15.6673 11.333C14.8103 11.333 13.9725 11.5872 13.2598 12.0633C12.5472 12.5395 11.9918 13.2162 11.6638 14.008C11.3359 14.7999 11.25 15.6711 11.4172 16.5117C11.5845 17.3523 11.9972 18.1244 12.6032 18.7305C13.2092 19.3365 13.9813 19.7492 14.8219 19.9164C15.6625 20.0836 16.5338 19.9978 17.3256 19.6698C18.1174 19.3418 18.7942 18.7864 19.2703 18.0738C19.7465 17.3612 20.0006 16.5234 20.0006 15.6663C19.9993 14.5175 19.5423 13.416 18.73 12.6037C17.9176 11.7913 16.8162 11.3343 15.6673 11.333ZM15.6673 19.333C14.9421 19.333 14.2332 19.1179 13.6302 18.715C13.0272 18.3121 12.5573 17.7395 12.2798 17.0695C12.0022 16.3995 11.9296 15.6623 12.0711 14.951C12.2126 14.2397 12.5618 13.5864 13.0746 13.0736C13.5874 12.5608 14.2407 12.2116 14.952 12.0701C15.6632 11.9286 16.4005 12.0013 17.0705 12.2788C17.7405 12.5563 18.3131 13.0263 18.716 13.6292C19.1189 14.2322 19.334 14.9411 19.334 15.6663C19.3328 16.6384 18.9461 17.5704 18.2588 18.2578C17.5714 18.9452 16.6394 19.3318 15.6673 19.333Z" fill="#8f5b4f"/>
<path d="M17.5918 14.2694L14.9991 16.862L13.8208 15.6833C13.7579 15.6226 13.6737 15.589 13.5863 15.5898C13.4989 15.5906 13.4153 15.6256 13.3535 15.6874C13.2917 15.7492 13.2566 15.8328 13.2559 15.9202C13.2551 16.0076 13.2887 16.0918 13.3494 16.1547L14.7634 17.569C14.8259 17.6315 14.9107 17.6666 14.9991 17.6666C15.0875 17.6666 15.1723 17.6315 15.2348 17.569L18.0631 14.7407C18.1238 14.6778 18.1574 14.5936 18.1566 14.5062C18.1559 14.4188 18.1208 14.3352 18.059 14.2734C17.9972 14.2116 17.9136 14.1766 17.8262 14.1758C17.7388 14.175 17.6546 14.2086 17.5918 14.2694Z" fill="#8f5b4f"/>
</svg>
