<svg width="20" height="20" viewBox="0 0 20 20" fill="none" xmlns="http://www.w3.org/2000/svg">
<path d="M9.51914 0.670199C9.96306 0.227534 10.5688 -0.0143579 11.1956 0.000659805L17.6067 0.164067C18.8251 0.19446 19.8057 1.1749 19.8361 2.39348L19.9994 8.80443C20.0142 9.43124 19.7725 10.037 19.33 10.4811L10.4799 19.3308C9.58565 20.2231 8.13805 20.2231 7.24378 19.3308L0.66942 12.7564C-0.224312 11.8629 -0.224312 10.4138 0.66942 9.5201L9.51914 0.670199ZM1.31661 12.1092L7.89097 18.6834C8.4275 19.2189 9.2962 19.2189 9.83272 18.6834L18.6826 9.83368C18.9481 9.56712 19.0933 9.20383 19.0843 8.82768L18.9211 2.41672C18.9027 1.68568 18.3145 1.09731 17.5835 1.07907L11.1725 0.915667C11.1609 0.915489 11.1496 0.91531 11.138 0.91531C10.7738 0.915846 10.4247 1.06048 10.1667 1.31757L1.31661 10.1675C0.781338 10.704 0.781338 11.5727 1.31661 12.1092Z" fill="#FEBC30"/>
<path d="M14.017 3.7793C15.234 3.7793 16.2205 4.76582 16.2207 5.98279C16.2207 7.19976 15.234 8.18628 14.0172 8.18628C12.8002 8.18628 11.8137 7.19976 11.8137 5.98279C11.8152 4.76653 12.8008 3.78073 14.017 3.7793ZM14.017 7.27091C14.7286 7.27091 15.3052 6.69416 15.3053 5.98279C15.3053 5.27141 14.7286 4.69466 14.0172 4.69466C13.3058 4.69466 12.7291 5.27141 12.7291 5.98279C12.7298 6.6938 13.306 7.27002 14.017 7.27091Z" fill="#FEBC30"/>
</svg>
